<?xml version="1.0" encoding="UTF-8" standalone="no"?>
<svg
   xmlns:osb="http://www.openswatchbook.org/uri/2009/osb"
   xmlns:dc="http://purl.org/dc/elements/1.1/"
   xmlns:cc="http://creativecommons.org/ns#"
   xmlns:rdf="http://www.w3.org/1999/02/22-rdf-syntax-ns#"
   xmlns:svg="http://www.w3.org/2000/svg"
   xmlns="http://www.w3.org/2000/svg"
   xmlns:xlink="http://www.w3.org/1999/xlink"
   xmlns:sodipodi="http://sodipodi.sourceforge.net/DTD/sodipodi-0.dtd"
   xmlns:inkscape="http://www.inkscape.org/namespaces/inkscape"
   width="8.0365562mm"
   height="8.0365553mm"
   viewBox="0 0 8.0365562 8.0365553"
   version="1.1"
   id="svg8"
   sodipodi:docname="DotFlare.svg"
   inkscape:version="0.92.3 (2405546, 2018-03-11)">
  <sodipodi:namedview
     pagecolor="#ffffff"
     bordercolor="#666666"
     borderopacity="1"
     objecttolerance="10"
     gridtolerance="10"
     guidetolerance="10"
     inkscape:pageopacity="0"
     inkscape:pageshadow="2"
     inkscape:window-width="1689"
     inkscape:window-height="1143"
     id="namedview912"
     showgrid="false"
     inkscape:zoom="11.351979"
     inkscape:cx="15.187193"
     inkscape:cy="17.740207"
     inkscape:window-x="0"
     inkscape:window-y="22"
     inkscape:window-maximized="0"
     inkscape:current-layer="layer1" />
  <defs
     id="defs2">
    <linearGradient
       inkscape:collect="always"
       id="linearGradient934">
      <stop
         style="stop-color:#000061;stop-opacity:0.63499999"
         offset="0"
         id="stop930" />
      <stop
         style="stop-color:#ffffff;stop-opacity:0.025"
         offset="1"
         id="stop932" />
    </linearGradient>
    <linearGradient
       id="linearGradient926">
      <stop
         style="stop-color:#ffffff;stop-opacity:1"
         offset="0"
         id="stop922" />
      <stop
         style="stop-color:#9cadff;stop-opacity:0"
         offset="1"
         id="stop924" />
    </linearGradient>
    <linearGradient
       id="linearGradient941">
      <stop
         id="stop937"
         offset="0"
         style="stop-color:#ffffff;stop-opacity:1" />
      <stop
         id="stop939"
         offset="1"
         style="stop-color:#6c8eff;stop-opacity:0.05490196" />
    </linearGradient>
    <linearGradient
       id="linearGradient3518"
       osb:paint="solid">
      <stop
         style="stop-color:#0b0a0d;stop-opacity:1;"
         offset="0"
         id="stop3516" />
    </linearGradient>
    <marker
       id="RazorWire"
       refX="0"
       refY="0"
       orient="auto"
       style="overflow:visible">
      <path
         id="path1055"
         transform="scale(0.8)"
         style="fill:#ffffff;fill-opacity:1;fill-rule:evenodd;stroke:#000000;stroke-width:0.10000001pt;stroke-opacity:1"
         d="m 0.02272727,-0.74009011 v 1.4375 L -7.7585227,3.0099099 H 10.678977 L 3.4914773,0.69740989 v -1.4375 L 10.741477,-2.8963401 H -7.7272727 Z" />
    </marker>
    <marker
       orient="auto"
       refY="0"
       refX="0"
       id="Torso"
       style="overflow:visible">
      <g
         id="g1049"
         transform="scale(0.7)"
         style="fill:#ffffff;fill-opacity:1;stroke:#000000;stroke-opacity:1">
        <path
           id="path1035"
           d="m -4.7792281,-3.239542 c 2.350374,0.3659393 5.30026732,1.9375477 5.03715532,3.62748546 C -0.00518779,2.0778819 -2.2126741,2.6176539 -4.5630471,2.2517169 -6.9134221,1.8857769 -8.521035,0.75201414 -8.257922,-0.93792336 -7.994809,-2.6278615 -7.1296041,-3.6054813 -4.7792281,-3.239542 Z"
           style="fill:#ffffff;fill-opacity:1;fill-rule:evenodd;stroke:#000000;stroke-width:1.25;stroke-opacity:1" />
        <path
           id="path1037"
           d="M 4.4598789,0.08866574 C -2.5564571,-4.378332 5.2248769,-3.9061806 -0.84829578,-8.7197331"
           style="fill:#ffffff;fill-opacity:1;fill-rule:evenodd;stroke:#000000;stroke-width:1.00000003pt;stroke-opacity:1" />
        <path
           id="path1039"
           d="M 4.9298719,0.05752074 C -1.3872731,1.7494689 1.8027579,5.4782079 -4.9448731,7.5462725"
           style="fill:#ffffff;fill-opacity:1;fill-rule:evenodd;stroke:#000000;stroke-width:1.00000003pt;stroke-opacity:1" />
        <rect
           id="rect1041"
           transform="matrix(0.527536,-0.849533,0.887668,0.460484,0,0)"
           y="-1.7408575"
           x="-10.391706"
           height="2.7608147"
           width="2.6366582"
           style="fill:#ffffff;fill-opacity:1;fill-rule:evenodd;stroke:#000000;stroke-width:1.00000003pt;stroke-opacity:1" />
        <rect
           id="rect1043"
           transform="matrix(0.671205,-0.741272,0.790802,0.612072,0,0)"
           y="-7.9629307"
           x="4.9587269"
           height="2.8614161"
           width="2.7327356"
           style="fill:#ffffff;fill-opacity:1;fill-rule:evenodd;stroke:#000000;stroke-width:1.00000003pt;stroke-opacity:1" />
        <path
           id="path1045"
           transform="matrix(0,-1.109517,1.109517,0,25.96648,19.71619)"
           d="m 16.779951,-28.685045 a 0.60731727,0.60731727 0 1 0 -1.214634,0 0.60731727,0.60731727 0 1 0 1.214634,0 z"
           style="fill:#ffffff;fill-opacity:1;fill-rule:evenodd;stroke:#000000;stroke-width:1.00000003pt;stroke-opacity:1" />
        <path
           id="path1047"
           transform="matrix(0,-1.109517,1.109517,0,26.8245,16.99126)"
           d="m 16.779951,-28.685045 a 0.60731727,0.60731727 0 1 0 -1.214634,0 0.60731727,0.60731727 0 1 0 1.214634,0 z"
           style="fill:#ffffff;fill-opacity:1;fill-rule:evenodd;stroke:#000000;stroke-width:1.00000003pt;stroke-opacity:1" />
      </g>
    </marker>
    <marker
       orient="auto"
       refY="0"
       refX="0"
       id="StopL"
       style="overflow:visible">
      <path
         id="path992"
         d="M 0,5.65 V -5.65"
         style="fill:#ffffff;fill-opacity:1;fill-rule:evenodd;stroke:#000000;stroke-width:1.00000003pt;stroke-opacity:1"
         transform="scale(0.8)" />
    </marker>
    <marker
       orient="auto"
       refY="0"
       refX="0"
       id="DiamondL"
       style="overflow:visible">
      <path
         id="path902"
         d="M 0,-7.0710768 -7.0710894,0 0,7.0710589 7.0710462,0 Z"
         style="fill:#ffffff;fill-opacity:1;fill-rule:evenodd;stroke:#000000;stroke-width:1.00000003pt;stroke-opacity:1"
         transform="scale(0.8)" />
    </marker>
    <marker
       orient="auto"
       refY="0"
       refX="0"
       id="DotL"
       style="overflow:visible">
      <path
         id="path884"
         d="m -2.5,-1 c 0,2.76 -2.24,5 -5,5 -2.76,0 -5,-2.24 -5,-5 0,-2.76 2.24,-5 5,-5 2.76,0 5,2.24 5,5 z"
         style="fill:#ffffff;fill-opacity:1;fill-rule:evenodd;stroke:#000000;stroke-width:1.00000003pt;stroke-opacity:1"
         transform="matrix(0.8,0,0,0.8,5.92,0.8)" />
    </marker>
    <marker
       orient="auto"
       refY="0"
       refX="0"
       id="Arrow1Sstart"
       style="overflow:visible">
      <path
         id="path835"
         d="M 0,0 5,-5 -12.5,0 5,5 Z"
         style="fill:#ffffff;fill-opacity:1;fill-rule:evenodd;stroke:#000000;stroke-width:1.00000003pt;stroke-opacity:1"
         transform="matrix(0.2,0,0,0.2,1.2,0)" />
    </marker>
    <marker
       orient="auto"
       refY="0"
       refX="0"
       id="Arrow1Lstart"
       style="overflow:visible">
      <path
         id="path823"
         d="M 0,0 5,-5 -12.5,0 5,5 Z"
         style="fill:#ffffff;fill-opacity:1;fill-rule:evenodd;stroke:#000000;stroke-width:1.00000003pt;stroke-opacity:1"
         transform="matrix(0.8,0,0,0.8,10,0)" />
    </marker>
    <radialGradient
       gradientUnits="userSpaceOnUse"
       gradientTransform="matrix(-0.71611839,0.41530128,-0.20699402,-0.34446035,179.5673,157.65319)"
       r="3.7536945"
       fy="147.46783"
       fx="87.013298"
       cy="147.46783"
       cx="87.013298"
       id="radialGradient943"
       xlink:href="#linearGradient941" />
    <radialGradient
       inkscape:collect="always"
       xlink:href="#linearGradient926"
       id="radialGradient918"
       gradientUnits="userSpaceOnUse"
       gradientTransform="matrix(-0.70755349,0.47904643,-0.1820879,-0.25955095,175.14258,139.6481)"
       cx="87.303154"
       cy="147.35222"
       fx="87.303154"
       fy="147.35222"
       r="3.7536945" />
    <radialGradient
       inkscape:collect="always"
       xlink:href="#linearGradient934"
       id="radialGradient936"
       cx="87.26722"
       cy="156.15274"
       fx="87.26722"
       fy="156.15274"
       r="3.2634616"
       gradientTransform="matrix(4.1914633,-2.3266157,0.92048327,1.6003605,-419.9647,101.12337)"
       gradientUnits="userSpaceOnUse" />
  </defs>
  <metadata
     id="metadata5">
    <rdf:RDF>
      <cc:Work
         rdf:about="">
        <dc:format>image/svg+xml</dc:format>
        <dc:type
           rdf:resource="http://purl.org/dc/dcmitype/StillImage" />
        <dc:title />
      </cc:Work>
    </rdf:RDF>
  </metadata>
  <g
     style="fill:url(#radialGradient943);fill-opacity:1;stroke:none"
     transform="matrix(0.91301686,0,0,0.92939173,-76.119377,-130.9553)"
     id="layer1">
    <path
       style="opacity:1;fill:url(#radialGradient918);fill-opacity:1;fill-rule:nonzero;stroke:none;stroke-width:0.52916676;stroke-linejoin:miter;stroke-miterlimit:4;stroke-dasharray:none;stroke-dashoffset:0;stroke-opacity:1"
       id="path821"
       d="m 91.548441,145.1839 a 3.7536945,3.7536945 0 0 1 -3.748372,3.75369 3.7536945,3.7536945 0 0 1 -3.759002,-3.74305 3.7536945,3.7536945 0 0 1 3.73771,-3.7643 3.7536945,3.7536945 0 0 1 3.769604,3.73237"
       inkscape:connector-curvature="0" />
    <path
       sodipodi:type="star"
       style="opacity:1;fill:#ffffff;fill-opacity:1;fill-rule:nonzero;stroke:none;stroke-width:2.07999992;stroke-linejoin:miter;stroke-miterlimit:4;stroke-dasharray:none;stroke-dashoffset:0;stroke-opacity:1"
       id="path920"
       sodipodi:sides="5"
       sodipodi:cx="10.212064"
       sodipodi:cy="7.5068765"
       sodipodi:r1="12.171823"
       sodipodi:r2="1.2225723"
       sodipodi:arg1="0.89846695"
       sodipodi:arg2="2.8478"
       inkscape:flatsided="false"
       inkscape:rounded="0"
       inkscape:randomized="0"
       d="M 17.792798,17.029782 9.0418757,7.8609144 3.497818,17.659323 9.5137457,6.5033652 -1.5183025,4.2585277 10.950668,6.5326344 9.6765445,-4.6531598 11.366864,7.9082731 21.611461,3.2399095 10.187166,8.7291952 Z"
       transform="matrix(0.28979019,0,0,0.28468441,83.371272,140.90431)"
       inkscape:transform-center-x="0.014298591"
       inkscape:transform-center-y="-0.10015729" />
    <path
       style="opacity:1;fill:url(#radialGradient936);fill-opacity:1;fill-rule:nonzero;stroke:none;stroke-width:0.59742999;stroke-linejoin:miter;stroke-miterlimit:4;stroke-dasharray:none;stroke-dashoffset:0;stroke-opacity:1"
       id="path928"
       sodipodi:type="arc"
       sodipodi:cx="87.533432"
       sodipodi:cy="144.88293"
       sodipodi:rx="3.2634616"
       sodipodi:ry="3.25947"
       sodipodi:start="0"
       sodipodi:end="6.277513"
       sodipodi:open="true"
       d="m 90.796894,144.88293 a 3.2634616,3.25947 0 0 1 -3.258834,3.25947 3.2634616,3.25947 0 0 1 -3.268076,-3.25022 3.2634616,3.25947 0 0 1 3.249565,-3.26869 3.2634616,3.25947 0 0 1 3.277292,3.24096" />
  </g>
</svg>
