<?xml version="1.0" encoding="UTF-8" standalone="no"?>
<!-- Created with Inkscape (http://www.inkscape.org/) -->

<svg
   xmlns:dc="http://purl.org/dc/elements/1.1/"
   xmlns:cc="http://creativecommons.org/ns#"
   xmlns:rdf="http://www.w3.org/1999/02/22-rdf-syntax-ns#"
   xmlns:svg="http://www.w3.org/2000/svg"
   xmlns="http://www.w3.org/2000/svg"
   xmlns:sodipodi="http://sodipodi.sourceforge.net/DTD/sodipodi-0.dtd"
   xmlns:inkscape="http://www.inkscape.org/namespaces/inkscape"
   width="210mm"
   height="297mm"
   viewBox="0 0 210 297"
   version="1.1"
   id="svg5727"
   inkscape:version="0.92.3 (2405546, 2018-03-11)"
   sodipodi:docname="Wall1.svg">
  <defs
     id="defs5721" />
  <sodipodi:namedview
     id="base"
     pagecolor="#ffffff"
     bordercolor="#666666"
     borderopacity="1.0"
     inkscape:pageopacity="0.0"
     inkscape:pageshadow="2"
     inkscape:zoom="0.49497475"
     inkscape:cx="-115.92502"
     inkscape:cy="562.43873"
     inkscape:document-units="mm"
     inkscape:current-layer="layer1"
     showgrid="false"
     inkscape:window-width="1920"
     inkscape:window-height="1080"
     inkscape:window-x="259"
     inkscape:window-y="42"
     inkscape:window-maximized="0" />
  <metadata
     id="metadata5724">
    <rdf:RDF>
      <cc:Work
         rdf:about="">
        <dc:format>image/svg+xml</dc:format>
        <dc:type
           rdf:resource="http://purl.org/dc/dcmitype/StillImage" />
        <dc:title />
      </cc:Work>
    </rdf:RDF>
  </metadata>
  <g
     inkscape:label="Layer 1"
     inkscape:groupmode="layer"
     id="layer1">
    <path
       style="fill:#008000;stroke:#000000;stroke-width:0.85008448;stroke-linecap:butt;stroke-linejoin:miter;stroke-miterlimit:4;stroke-dasharray:none;stroke-opacity:1"
       d="m 44.681595,275.32511 c 0,0 -3.001929,-7.73811 -6.670953,-26.6191 C 34.341618,229.825 51.019,234.46787 56.689312,221.46783 62.359622,208.4678 59.357693,209.39638 58.357049,185.87251 57.356406,162.34865 49.684811,176.58677 42.013214,146.87241 34.341618,117.15806 35.008713,121.80093 19.66552,106.94374 4.3223276,92.086563 0.98685191,90.229416 7.6578042,86.205598 14.328758,82.181779 33.007427,88.681795 42.68031,72.586515 52.353192,56.491238 46.015785,41.634058 44.348048,32.96737 33.145488,-9.7613437 156.86612,2.6570075 200.44835,38.229288 c 0.6671,12.071459 -5.33676,12.690508 -8.67223,30.642934 -3.33548,17.952424 6.67094,33.738178 6.67094,39.928668 0,6.19049 -2.66838,8.97621 -15.00963,12.38099 -12.34127,3.40476 -10.33999,-1.85715 -12.67482,10.83335 -2.33483,12.69051 1.33419,41.16678 2.00129,52.00013 0.6671,10.83337 19.6793,18.881 24.34898,33.42866 4.66967,14.54765 -12.67482,33.73817 -14.34256,36.21438 -6.38481,6.85353 21.01351,21.04767 21.01351,21.04767 -11.99578,28.51653 -156.069409,19.21217 -159.102235,0.61904 z"
       id="path6272"
       inkscape:connector-curvature="0"
       sodipodi:nodetypes="csssssssccssssssccc" />
  </g>
</svg>
