<?xml version="1.0" encoding="UTF-8" standalone="no"?>
<!-- Created with Inkscape (http://www.inkscape.org/) -->

<svg
   xmlns:dc="http://purl.org/dc/elements/1.1/"
   xmlns:cc="http://creativecommons.org/ns#"
   xmlns:rdf="http://www.w3.org/1999/02/22-rdf-syntax-ns#"
   xmlns:svg="http://www.w3.org/2000/svg"
   xmlns="http://www.w3.org/2000/svg"
   xmlns:sodipodi="http://sodipodi.sourceforge.net/DTD/sodipodi-0.dtd"
   xmlns:inkscape="http://www.inkscape.org/namespaces/inkscape"
   width="210mm"
   height="297mm"
   viewBox="0 0 210 297"
   version="1.1"
   id="svg8587"
   inkscape:version="0.92.3 (2405546, 2018-03-11)"
   sodipodi:docname="Wall6.svg">
  <defs
     id="defs8581" />
  <sodipodi:namedview
     id="base"
     pagecolor="#ffffff"
     bordercolor="#666666"
     borderopacity="1.0"
     inkscape:pageopacity="0.0"
     inkscape:pageshadow="2"
     inkscape:zoom="0.35"
     inkscape:cx="-74.285714"
     inkscape:cy="562.85714"
     inkscape:document-units="mm"
     inkscape:current-layer="layer1"
     showgrid="false"
     inkscape:window-width="1920"
     inkscape:window-height="1080"
     inkscape:window-x="495"
     inkscape:window-y="216"
     inkscape:window-maximized="0" />
  <metadata
     id="metadata8584">
    <rdf:RDF>
      <cc:Work
         rdf:about="">
        <dc:format>image/svg+xml</dc:format>
        <dc:type
           rdf:resource="http://purl.org/dc/dcmitype/StillImage" />
        <dc:title />
      </cc:Work>
    </rdf:RDF>
  </metadata>
  <g
     inkscape:label="Layer 1"
     inkscape:groupmode="layer"
     id="layer1">
    <path
       style="fill:#008000;stroke:#000000;stroke-width:0.76165348;stroke-linecap:butt;stroke-linejoin:miter;stroke-miterlimit:4;stroke-dasharray:none;stroke-opacity:1"
       d="m 118.24597,287.1041 c -22.981227,-4.34207 -1.60334,-11.16533 -33.135719,-6.82327 -31.532374,4.34208 -13.361173,16.1277 -36.876845,4.34208 C 24.717736,272.83728 14.028796,257.95019 9.2187716,224.45419 4.4087489,190.9582 -1.4701686,179.17258 17.235478,155.60132 35.941124,132.03007 43.423383,120.86474 31.131101,85.50786 18.838819,50.150983 7.0809835,52.632167 17.235478,34.023283 27.389971,15.4144 27.924419,-8.7771471 53.043431,11.692624 c 25.11901,20.469771 47.565779,32.255397 67.874769,25.43214 20.309,-6.823257 26.72236,-22.330659 49.16913,-10.545034 22.44678,11.785626 41.68688,56.446946 34.73907,79.39791 -6.94782,22.95095 -50.23803,4.96236 -52.91027,42.80042 -2.67223,37.83806 3.20669,55.82666 18.1712,70.71375 14.96452,14.88711 42.75576,13.02622 30.99794,31.01481 -11.75784,17.98859 -63.06476,35.35688 -67.87478,26.67275 -4.81002,-8.68416 -14.96452,9.92473 -14.96452,9.92473 z"
       id="path9132"
       inkscape:connector-curvature="0" />
  </g>
</svg>
