<?xml version="1.0" encoding="UTF-8" standalone="no"?>
<!-- Created with Inkscape (http://www.inkscape.org/) -->

<svg
   xmlns:dc="http://purl.org/dc/elements/1.1/"
   xmlns:cc="http://creativecommons.org/ns#"
   xmlns:rdf="http://www.w3.org/1999/02/22-rdf-syntax-ns#"
   xmlns:svg="http://www.w3.org/2000/svg"
   xmlns="http://www.w3.org/2000/svg"
   xmlns:sodipodi="http://sodipodi.sourceforge.net/DTD/sodipodi-0.dtd"
   xmlns:inkscape="http://www.inkscape.org/namespaces/inkscape"
   width="210mm"
   height="297mm"
   viewBox="0 0 210 297"
   version="1.1"
   id="svg6299"
   inkscape:version="0.92.3 (2405546, 2018-03-11)"
   sodipodi:docname="Wall2.svg">
  <defs
     id="defs6293" />
  <sodipodi:namedview
     id="base"
     pagecolor="#ffffff"
     bordercolor="#666666"
     borderopacity="1.0"
     inkscape:pageopacity="0.0"
     inkscape:pageshadow="2"
     inkscape:zoom="0.7"
     inkscape:cx="15.827369"
     inkscape:cy="562.14287"
     inkscape:document-units="mm"
     inkscape:current-layer="layer1"
     showgrid="false"
     inkscape:window-width="1920"
     inkscape:window-height="1080"
     inkscape:window-x="291"
     inkscape:window-y="158"
     inkscape:window-maximized="0" />
  <metadata
     id="metadata6296">
    <rdf:RDF>
      <cc:Work
         rdf:about="">
        <dc:format>image/svg+xml</dc:format>
        <dc:type
           rdf:resource="http://purl.org/dc/dcmitype/StillImage" />
        <dc:title />
      </cc:Work>
    </rdf:RDF>
  </metadata>
  <g
     inkscape:label="Layer 1"
     inkscape:groupmode="layer"
     id="layer1">
    <path
       style="fill:#008000;stroke:#000000;stroke-width:0.80234909;stroke-linecap:butt;stroke-linejoin:miter;stroke-miterlimit:4;stroke-dasharray:none;stroke-opacity:1"
       d="M 147.02875,292.93982 C 103.09103,273.58859 62.31908,323.60453 56.898664,248.97942 56.396547,239.08833 48.613726,196.5933 56.396547,191.83091 64.179368,187.06854 78.489716,157.39528 78.489716,157.39528 84.660412,128.25923 76.888214,132.66612 60.915605,135.41509 7.4466709,141.0933 4.2674161,26.782856 3.6742106,4.2666031 L 183.68333,1.7022471 c 0,0 32.64015,9.1680799 20.0847,27.4752409 -5.52329,6.960394 -31.88446,22.34653 -40.92258,39.564347 -19.40323,36.963575 1.50636,76.564345 5.27223,90.485125 3.76589,13.92079 27.86752,26.37623 -5.52328,47.25741 -33.39081,20.88119 -29.876,43.96039 -27.36541,59.71285 2.51059,15.75248 11.79976,26.7426 11.79976,26.7426 z"
       id="path6844"
       inkscape:connector-curvature="0"
       sodipodi:nodetypes="ccscccccssssc" />
  </g>
</svg>
