<?xml version="1.0" encoding="UTF-8" standalone="no"?>
<!-- Created with Inkscape (http://www.inkscape.org/) -->

<svg
   xmlns:dc="http://purl.org/dc/elements/1.1/"
   xmlns:cc="http://creativecommons.org/ns#"
   xmlns:rdf="http://www.w3.org/1999/02/22-rdf-syntax-ns#"
   xmlns:svg="http://www.w3.org/2000/svg"
   xmlns="http://www.w3.org/2000/svg"
   xmlns:sodipodi="http://sodipodi.sourceforge.net/DTD/sodipodi-0.dtd"
   xmlns:inkscape="http://www.inkscape.org/namespaces/inkscape"
   width="210mm"
   height="297mm"
   viewBox="0 0 210 297"
   version="1.1"
   id="svg7443"
   inkscape:version="0.92.3 (2405546, 2018-03-11)"
   sodipodi:docname="Wall4.svg">
  <defs
     id="defs7437" />
  <sodipodi:namedview
     id="base"
     pagecolor="#ffffff"
     bordercolor="#666666"
     borderopacity="1.0"
     inkscape:pageopacity="0.0"
     inkscape:pageshadow="2"
     inkscape:zoom="0.7"
     inkscape:cx="337.33814"
     inkscape:cy="561.42858"
     inkscape:document-units="mm"
     inkscape:current-layer="layer1"
     showgrid="false"
     inkscape:window-width="1920"
     inkscape:window-height="1080"
     inkscape:window-x="462"
     inkscape:window-y="241"
     inkscape:window-maximized="0" />
  <metadata
     id="metadata7440">
    <rdf:RDF>
      <cc:Work
         rdf:about="">
        <dc:format>image/svg+xml</dc:format>
        <dc:type
           rdf:resource="http://purl.org/dc/dcmitype/StillImage" />
        <dc:title />
      </cc:Work>
    </rdf:RDF>
  </metadata>
  <g
     inkscape:label="Layer 1"
     inkscape:groupmode="layer"
     id="layer1">
    <path
       style="fill:#008000;stroke:#000000;stroke-width:0.82658964;stroke-linecap:butt;stroke-linejoin:miter;stroke-miterlimit:4;stroke-dasharray:none;stroke-opacity:1"
       d="m 173.55078,283.63572 c -30.30385,2.70576 1.15444,15.55815 -40.98235,1.01467 C 90.431646,270.1069 86.102525,242.37279 56.08728,255.56339 26.072036,268.75401 31.844199,292.42946 18.279618,259.62206 4.7150363,226.81463 -7.4065049,210.91825 17.413792,194.34544 42.234091,177.77262 57.818929,167.626 49.737902,148.00919 41.656874,128.39239 30.978375,113.84889 21.165698,107.4227 11.353022,100.9965 11.064414,100.32007 21.454306,83.747247 31.844199,67.17443 33.28724,59.05713 50.02651,60.410013 66.765781,61.762895 58.973362,51.278053 61.570835,37.072781 64.168308,22.867508 65.034133,6.2946905 81.773403,12.720885 98.51267,19.14708 110.057,26.926157 120.7355,13.397327 c 10.67851,-13.52883067 7.79242,-6.426195 22.80004,-9.4701816 15.00763,-3.04398726 25.97473,7.4408576 33.47855,18.6021426 7.5038,11.161285 8.94684,21.307908 15.87344,42.615817 6.92658,21.307908 12.41015,39.910055 4.04052,64.938385 -8.36965,25.02833 -12.98737,15.21994 -15.00764,52.76244 -2.02024,37.5425 7.50382,38.21895 15.87346,53.10066 8.36963,14.88172 8.08102,12.17595 9.81268,26.04301 1.73164,13.86705 -34.05577,21.64612 -34.05577,21.64612 z"
       id="path7988"
       inkscape:connector-curvature="0" />
  </g>
</svg>
