<?xml version="1.0" encoding="UTF-8" standalone="no"?>
<!-- Created with Inkscape (http://www.inkscape.org/) -->

<svg
   xmlns:dc="http://purl.org/dc/elements/1.1/"
   xmlns:cc="http://creativecommons.org/ns#"
   xmlns:rdf="http://www.w3.org/1999/02/22-rdf-syntax-ns#"
   xmlns:svg="http://www.w3.org/2000/svg"
   xmlns="http://www.w3.org/2000/svg"
   xmlns:sodipodi="http://sodipodi.sourceforge.net/DTD/sodipodi-0.dtd"
   xmlns:inkscape="http://www.inkscape.org/namespaces/inkscape"
   width="210mm"
   height="297mm"
   viewBox="0 0 210 297"
   version="1.1"
   id="svg10303"
   inkscape:version="0.92.3 (2405546, 2018-03-11)"
   sodipodi:docname="Wall9.svg">
  <defs
     id="defs10297" />
  <sodipodi:namedview
     id="base"
     pagecolor="#ffffff"
     bordercolor="#666666"
     borderopacity="1.0"
     inkscape:pageopacity="0.0"
     inkscape:pageshadow="2"
     inkscape:zoom="0.7"
     inkscape:cx="168.83015"
     inkscape:cy="561.42858"
     inkscape:document-units="mm"
     inkscape:current-layer="layer1"
     showgrid="false"
     inkscape:window-width="1920"
     inkscape:window-height="1080"
     inkscape:window-x="557"
     inkscape:window-y="164"
     inkscape:window-maximized="0" />
  <metadata
     id="metadata10300">
    <rdf:RDF>
      <cc:Work
         rdf:about="">
        <dc:format>image/svg+xml</dc:format>
        <dc:type
           rdf:resource="http://purl.org/dc/dcmitype/StillImage" />
        <dc:title />
      </cc:Work>
    </rdf:RDF>
  </metadata>
  <g
     inkscape:label="Layer 1"
     inkscape:groupmode="layer"
     id="layer1">
    <path
       style="fill:#008000;stroke:#000000;stroke-width:0.87104475;stroke-linecap:butt;stroke-linejoin:miter;stroke-miterlimit:4;stroke-dasharray:none;stroke-opacity:1"
       d="m 179.90146,292.15453 c -14.98774,-6.63919 -42.61221,-22.13066 -46.43261,-18.44222 -3.82042,3.68844 -5.58368,11.80303 -21.15919,13.27839 -15.575491,1.47538 -50.253022,2.95077 -58.775466,-5.16382 -8.522443,-8.11457 -19.285364,-13.55589 -14.106113,-26.55681 7.346933,-18.44225 0.587754,-34.30257 0.587754,-34.30257 0,0 -12.34285,1.10653 -14.399991,-21.39299 -4.187969,-45.805 -23.2163132,-40.57293 -19.395907,-46.47446 3.820406,-5.90151 4.114284,7.37691 11.16734,-12.54072 7.053058,-19.91762 7.640812,-33.93372 11.755095,-44.999071 C 33.256656,84.494922 43.542363,91.871814 39.721958,64.577303 35.901552,37.282786 35.901552,36.176251 33.844411,31.012425 31.787268,25.848599 20.326052,28.061667 32.081146,19.947081 43.836241,11.832496 73.517857,11.094806 91.738254,8.8817378 109.95865,6.6686693 127.5913,6.2998241 134.0566,14.41441 c 6.4653,8.114585 4.40815,5.163827 10.2857,14.384946 5.87755,9.221122 47.02038,18.073394 49.37139,22.499533 2.35102,4.426138 5.87756,57.170951 4.99593,70.080521 -0.88164,12.90955 14.10611,5.53266 -5.28979,20.65529 -19.39591,15.12265 -21.15918,0.7377 -21.45305,18.81109 -0.29388,18.0734 -25.86122,22.86838 -0.88163,66.76091 24.97956,43.89252 25.8612,40.20407 28.5061,44.63023 1.76326,8.48342 -11.7551,4.42613 -10.87346,5.53267 0.88163,1.10652 -8.81633,14.38493 -8.81633,14.38493 z"
       id="path10848"
       inkscape:connector-curvature="0"
       sodipodi:nodetypes="csccscsssssssssssssssccc" />
  </g>
</svg>
