<?xml version="1.0" encoding="UTF-8" standalone="no"?>
<!-- Created with Inkscape (http://www.inkscape.org/) -->

<svg
   xmlns:dc="http://purl.org/dc/elements/1.1/"
   xmlns:cc="http://creativecommons.org/ns#"
   xmlns:rdf="http://www.w3.org/1999/02/22-rdf-syntax-ns#"
   xmlns:svg="http://www.w3.org/2000/svg"
   xmlns="http://www.w3.org/2000/svg"
   xmlns:sodipodi="http://sodipodi.sourceforge.net/DTD/sodipodi-0.dtd"
   xmlns:inkscape="http://www.inkscape.org/namespaces/inkscape"
   width="210mm"
   height="297mm"
   viewBox="0 0 210 297"
   version="1.1"
   id="svg6871"
   inkscape:version="0.92.3 (2405546, 2018-03-11)"
   sodipodi:docname="Wall3.svg">
  <defs
     id="defs6865" />
  <sodipodi:namedview
     id="base"
     pagecolor="#ffffff"
     bordercolor="#666666"
     borderopacity="1.0"
     inkscape:pageopacity="0.0"
     inkscape:pageshadow="2"
     inkscape:zoom="0.49497475"
     inkscape:cx="10.030053"
     inkscape:cy="391.16042"
     inkscape:document-units="mm"
     inkscape:current-layer="layer1"
     showgrid="false"
     inkscape:window-width="1920"
     inkscape:window-height="1080"
     inkscape:window-x="516"
     inkscape:window-y="195"
     inkscape:window-maximized="0" />
  <metadata
     id="metadata6868">
    <rdf:RDF>
      <cc:Work
         rdf:about="">
        <dc:format>image/svg+xml</dc:format>
        <dc:type
           rdf:resource="http://purl.org/dc/dcmitype/StillImage" />
        <dc:title />
      </cc:Work>
    </rdf:RDF>
  </metadata>
  <g
     inkscape:label="Layer 1"
     inkscape:groupmode="layer"
     id="layer1">
    <path
       style="fill:#008000;stroke:#000000;stroke-width:0.81072396;stroke-linecap:butt;stroke-linejoin:miter;stroke-miterlimit:4;stroke-dasharray:none;stroke-opacity:1"
       d="m 70.328842,261.72164 c -4.540747,-5.62492 -0.283795,-32.09513 6.811121,-46.98462 7.094918,-14.88951 -4.824544,-62.20502 -36.325979,-58.89625 -31.5014355,3.30878 -40.86672806,-38.7127 -35.7583867,-35.07304 5.1083417,3.63966 3.6893577,-6.28668 9.3652917,-7.94106 5.675934,-1.6544 26.393095,-29.448123 36.32598,-18.529154 C 60.679754,105.21648 72.031623,86.356448 66.071892,70.805194 60.112161,55.253939 43.084357,39.702685 40.813984,26.467576 38.543609,13.232467 40.530188,12.239834 40.530188,12.239834 68.465628,22.378969 163.279,-10.354403 170.50908,26.136699 c 1.98658,10.918966 30.08245,31.433385 14.75743,43.344983 -15.32502,11.911598 -32.35282,29.44812 -26.67689,47.977268 5.67593,18.52916 12.48706,27.79374 23.83893,21.50706 11.35186,-6.28667 13.33845,-5.62492 15.04122,0.99263 1.70278,6.61756 17.87919,7.61019 1.13519,14.55862 -16.74401,6.94843 -30.36625,0 -32.92042,4.96317 -2.55417,4.96317 -13.05465,13.23511 -1.98658,36.72743 11.06807,23.49231 18.163,34.08041 15.04123,67.49904 -30.21253,41.91844 -86.828629,35.10203 -108.410348,-1.98526 z"
       id="path7416"
       inkscape:connector-curvature="0"
       sodipodi:nodetypes="csssssssccssssssscc" />
  </g>
</svg>
