<?xml version="1.0" encoding="UTF-8" standalone="no"?>
<!-- Created with Inkscape (http://www.inkscape.org/) -->

<svg
   xmlns:dc="http://purl.org/dc/elements/1.1/"
   xmlns:cc="http://creativecommons.org/ns#"
   xmlns:rdf="http://www.w3.org/1999/02/22-rdf-syntax-ns#"
   xmlns:svg="http://www.w3.org/2000/svg"
   xmlns="http://www.w3.org/2000/svg"
   xmlns:sodipodi="http://sodipodi.sourceforge.net/DTD/sodipodi-0.dtd"
   xmlns:inkscape="http://www.inkscape.org/namespaces/inkscape"
   width="210mm"
   height="297mm"
   viewBox="0 0 210 297"
   version="1.1"
   id="svg9159"
   inkscape:version="0.92.3 (2405546, 2018-03-11)"
   sodipodi:docname="Wall7.svg">
  <defs
     id="defs9153" />
  <sodipodi:namedview
     id="base"
     pagecolor="#ffffff"
     bordercolor="#666666"
     borderopacity="1.0"
     inkscape:pageopacity="0.0"
     inkscape:pageshadow="2"
     inkscape:zoom="0.35"
     inkscape:cx="-74.285714"
     inkscape:cy="562.85714"
     inkscape:document-units="mm"
     inkscape:current-layer="layer1"
     showgrid="false"
     inkscape:window-width="1920"
     inkscape:window-height="1080"
     inkscape:window-x="565"
     inkscape:window-y="172"
     inkscape:window-maximized="0" />
  <metadata
     id="metadata9156">
    <rdf:RDF>
      <cc:Work
         rdf:about="">
        <dc:format>image/svg+xml</dc:format>
        <dc:type
           rdf:resource="http://purl.org/dc/dcmitype/StillImage" />
        <dc:title />
      </cc:Work>
    </rdf:RDF>
  </metadata>
  <g
     inkscape:label="Layer 1"
     inkscape:groupmode="layer"
     id="layer1">
    <path
       style="fill:#008000;stroke:#000000;stroke-width:0.72853065;stroke-linecap:butt;stroke-linejoin:miter;stroke-miterlimit:4;stroke-dasharray:none;stroke-opacity:1"
       d="m 152.63855,281.38303 c -9.73543,3.55168 -23.56998,12.4309 -39.45409,11.247 -15.884111,-1.18388 -36.892128,-12.4309 -50.726677,-22.494 C 48.623234,260.07291 40.424983,261.84876 21.978918,248.82591 3.5328516,235.80306 3.5328516,231.06748 6.0948059,207.38959 8.6567588,183.71167 9.1691505,183.71167 28.127605,164.76935 47.086061,145.82703 56.309094,163.58546 55.284313,122.74108 54.259531,81.896686 46.06128,42.828144 46.06128,25.069714 c 0,-17.7584266 -1.537172,-13.614794 32.793005,-13.614794 34.330175,0 32.793005,-15.9825865 62.511665,14.206742 29.71866,30.189329 51.75146,33.741015 56.36298,47.947758 4.61152,14.206742 16.3965,12.430901 -7.68586,58.01087 -24.08236,45.57997 -19.98324,65.11424 -7.68587,91.15993 12.29739,26.04569 -8.71063,40.25244 -13.83454,43.80413 -5.1239,3.55168 -13.83455,14.20675 -13.83455,14.20675 z"
       id="path9704"
       inkscape:connector-curvature="0" />
  </g>
</svg>
